{
 "accessors": [
  {
   "componentType": 5126,
   "type": "VEC3",
   "count": 272,
   "max": [
    0.9330127239227295,
    1.66091787815094,
    0.5065104365348816
   ],
   "min": [
    -5.700200080871582,
    -1.116025447845459,
    -0.5065104365348816
   ],
   "bufferView": 0
  },
  {
   "componentType": 5126,
   "type": "VEC3",
   "count": 272,
   "bufferView": 1
  },
  {
   "componentType": 5126,
   "type": "VEC2",
   "count": 272,
   "bufferView": 2
  },
  {
   "componentType": 5123,
   "type": "SCALAR",
   "count": 348,
   "bufferView": 3
  },
  {
   "componentType": 5121,
   "type": "SCALAR",
   "count": 6,
   "bufferView": 4
  },
  {
   "componentType": 5121,
   "type": "SCALAR",
   "count": 54,
   "bufferView": 5
  }
 ],
 "asset": {
  "version": "2.0",
  "generator": "clara.io"
 },
 "bufferViews": [
  {
   "buffer": 0,
   "byteOffset": 0,
   "byteLength": 3264,
   "target": 34962,
   "byteStride": 12
  },
  {
   "buffer": 0,
   "byteOffset": 3264,
   "byteLength": 3264,
   "target": 34962,
   "byteStride": 12
  },
  {
   "buffer": 0,
   "byteOffset": 6528,
   "byteLength": 2176,
   "target": 34962,
   "byteStride": 8
  },
  {
   "buffer": 0,
   "byteOffset": 8704,
   "byteLength": 696,
   "target": 34963
  },
  {
   "buffer": 0,
   "byteOffset": 9400,
   "byteLength": 6,
   "target": 34963
  },
  {
   "buffer": 0,
   "byteOffset": 9408,
   "byteLength": 54,
   "target": 34963
  }
 ],
 "buffers": [
  {
   "byteLength": 9464,
   "uri": "data:application/octet-stream;base64,"
  }
 ],
 "materials": [
  {
   "name": "Maron",
   "pbrMetallicRoughness": {
    "baseColorFactor": [
     0.42745098039215684,
     0.3803921568627451,
     0.21568627450980393,
     1
    ],
    "roughnessFactor": 0.1961,
    "metallicFactor": 0
   }
  },
  {
   "name": "Gris",
   "pbrMetallicRoughness": {
    "baseColorFactor": [
     0.6196078431372549,
     0.6196078431372549,
     0.6196078431372549,
     1
    ],
    "roughnessFactor": 0.1961,
    "metallicFactor": 0
   }
  },
  {
   "name": "Noir",
   "pbrMetallicRoughness": {
    "baseColorFactor": [
     0,
     0,
     0,
     1
    ],
    "roughnessFactor": 0.1961,
    "metallicFactor": 0
   }
  }
 ],
 "meshes": [
  {
   "primitives": [
    {
     "indices": 3,
     "material": 1,
     "mode": 4,
     "attributes": {
      "POSITION": 0,
      "NORMAL": 1,
      "TEXCOORD_0": 2
     }
    },
    {
     "indices": 4,
     "material": 2,
     "mode": 4,
     "attributes": {
      "POSITION": 0,
      "NORMAL": 1,
      "TEXCOORD_0": 2
     }
    },
    {
     "indices": 5,
     "material": 0,
     "mode": 4,
     "attributes": {
      "POSITION": 0,
      "NORMAL": 1,
      "TEXCOORD_0": 2
     }
    }
   ]
  }
 ],
 "nodes": [
  {
   "name": "Weapon",
   "mesh": 0
  }
 ],
 "scene": 0,
 "scenes": [
  {
   "nodes": [
    0
   ]
  }
 ]
}