{
 "accessors": [
  {
   "componentType": 5126,
   "type": "VEC3",
   "count": 24,
   "max": [
    0.5,
    0.5,
    0.5
   ],
   "min": [
    -0.5,
    -0.5,
    -0.5
   ],
   "bufferView": 0
  },
  {
   "componentType": 5126,
   "type": "VEC3",
   "count": 24,
   "bufferView": 1
  },
  {
   "componentType": 5126,
   "type": "VEC2",
   "count": 24,
   "bufferView": 2
  },
  {
   "componentType": 5121,
   "type": "SCALAR",
   "count": 36,
   "bufferView": 3
  },
  {
   "componentType": 5126,
   "type": "VEC3",
   "count": 272,
   "max": [
    0.9330127239227295,
    1.66091787815094,
    0.5065104365348816
   ],
   "min": [
    -5.700200080871582,
    -1.116025447845459,
    -0.5065104365348816
   ],
   "bufferView": 4
  },
  {
   "componentType": 5126,
   "type": "VEC3",
   "count": 272,
   "bufferView": 5
  },
  {
   "componentType": 5126,
   "type": "VEC2",
   "count": 272,
   "bufferView": 6
  },
  {
   "componentType": 5123,
   "type": "SCALAR",
   "count": 348,
   "bufferView": 7
  },
  {
   "componentType": 5121,
   "type": "SCALAR",
   "count": 6,
   "bufferView": 8
  },
  {
   "componentType": 5121,
   "type": "SCALAR",
   "count": 54,
   "bufferView": 9
  }
 ],
 "asset": {
  "version": "2.0",
  "generator": "clara.io"
 },
 "bufferViews": [
  {
   "buffer": 0,
   "byteOffset": 0,
   "byteLength": 288,
   "target": 34962,
   "byteStride": 12
  },
  {
   "buffer": 0,
   "byteOffset": 288,
   "byteLength": 288,
   "target": 34962,
   "byteStride": 12
  },
  {
   "buffer": 0,
   "byteOffset": 576,
   "byteLength": 192,
   "target": 34962,
   "byteStride": 8
  },
  {
   "buffer": 0,
   "byteOffset": 768,
   "byteLength": 36,
   "target": 34963
  },
  {
   "buffer": 0,
   "byteOffset": 804,
   "byteLength": 3264,
   "target": 34962,
   "byteStride": 12
  },
  {
   "buffer": 0,
   "byteOffset": 4068,
   "byteLength": 3264,
   "target": 34962,
   "byteStride": 12
  },
  {
   "buffer": 0,
   "byteOffset": 7332,
   "byteLength": 2176,
   "target": 34962,
   "byteStride": 8
  },
  {
   "buffer": 0,
   "byteOffset": 9508,
   "byteLength": 696,
   "target": 34963
  },
  {
   "buffer": 0,
   "byteOffset": 10204,
   "byteLength": 6,
   "target": 34963
  },
  {
   "buffer": 0,
   "byteOffset": 10212,
   "byteLength": 54,
   "target": 34963
  }
 ],
 "buffers": [
  {
   "byteLength": 10268,
   "uri": "data:application/octet-stream;base64,"
  }
 ],
 "materials": [
  {
   "name": "WeaponBox",
   "pbrMetallicRoughness": {
    "baseColorFactor": [
     0.6901960784313725,
     0.6901960784313725,
     0.6901960784313725,
     0
    ],
    "roughnessFactor": 0.1961,
    "metallicFactor": 0
   },
   "alphaMode": "BLEND"
  },
  {
   "name": "Maron",
   "pbrMetallicRoughness": {
    "baseColorFactor": [
     0.42745098039215684,
     0.3803921568627451,
     0.21568627450980393,
     1
    ],
    "roughnessFactor": 0.1961,
    "metallicFactor": 0
   }
  },
  {
   "name": "Gris",
   "pbrMetallicRoughness": {
    "baseColorFactor": [
     0.6196078431372549,
     0.6196078431372549,
     0.6196078431372549,
     1
    ],
    "roughnessFactor": 0.1961,
    "metallicFactor": 0
   }
  },
  {
   "name": "Noir",
   "pbrMetallicRoughness": {
    "baseColorFactor": [
     0,
     0,
     0,
     1
    ],
    "roughnessFactor": 0.1961,
    "metallicFactor": 0
   }
  }
 ],
 "meshes": [
  {
   "primitives": [
    {
     "indices": 3,
     "material": 0,
     "mode": 4,
     "attributes": {
      "POSITION": 0,
      "NORMAL": 1,
      "TEXCOORD_0": 2
     }
    }
   ]
  },
  {
   "primitives": [
    {
     "indices": 7,
     "material": 2,
     "mode": 4,
     "attributes": {
      "POSITION": 4,
      "NORMAL": 5,
      "TEXCOORD_0": 6
     }
    },
    {
     "indices": 8,
     "material": 3,
     "mode": 4,
     "attributes": {
      "POSITION": 4,
      "NORMAL": 5,
      "TEXCOORD_0": 6
     }
    },
    {
     "indices": 9,
     "material": 1,
     "mode": 4,
     "attributes": {
      "POSITION": 4,
      "NORMAL": 5,
      "TEXCOORD_0": 6
     }
    }
   ]
  }
 ],
 "nodes": [
  {
   "name": "WeaponBox",
   "translation": [
    -2.3578999042510986,
    0.26910001039505005,
    0
   ],
   "scale": [
    0.6809999942779541,
    0.28630000352859497,
    0.10679999738931656
   ],
   "mesh": 0,
   "children": [
    1
   ]
  },
  {
   "name": "Weapon",
   "translation": [
    0.3462611436843872,
    -0.09400216490030289,
    0
   ],
   "scale": [
    0.14685150980949402,
    0.34932056069374084,
    0.9362419247627258
   ],
   "mesh": 1
  }
 ],
 "scene": 0,
 "scenes": [
  {
   "nodes": [
    0
   ]
  }
 ]
}