{
  "asset": {
    "generator": "BabylonJS",
    "version": "2.0"
  },
  "buffers": [
    {
      "byteLength": 60944,
      "uri": "scene.bin"
    }
  ],
  "nodes": [
    {
      "name": "Ground",
      "mesh": 0,
      "rotation": [
        0,
        1,
        0,
        0
      ]
    },
    {
      "name": "SkyBox",
      "mesh": 1,
      "rotation": [
        0,
        1,
        0,
        0
      ]
    },
    {
      "name": "Wall1",
      "translation": [
        0,
        10,
        250
      ],
      "scale": [
        16,
        3,
        1
      ],
      "mesh": 2,
      "rotation": [
        0,
        1,
        0,
        0
      ]
    },
    {
      "name": "Wall2",
      "translation": [
        -250,
        10,
        0
      ],
      "scale": [
        16,
        3,
        1
      ],
      "rotation": [
        0,
        0.6967067093471654,
        0,
        0.7173560908995228
      ],
      "mesh": 3
    },
    {
      "name": "Wall3",
      "translation": [
        250,
        10,
        0
      ],
      "scale": [
        16,
        3,
        1
      ],
      "rotation": [
        0,
        0.6967067093471654,
        0,
        -0.7173560908995228
      ],
      "mesh": 4
    },
    {
      "name": "Wall4",
      "translation": [
        0,
        10,
        -250
      ],
      "scale": [
        16,
        3,
        1
      ],
      "rotation": [
        0,
        -0.014203195624825816,
        0,
        0.9998991295295956
      ],
      "mesh": 5
    }
  ],
  "meshes": [
    {
      "primitives": [
        {
          "attributes": {
            "POSITION": 0,
            "NORMAL": 1,
            "TEXCOORD_0": 2
          },
          "indices": 3,
          "material": 0
        }
      ]
    },
    {
      "primitives": [
        {
          "attributes": {
            "POSITION": 4,
            "NORMAL": 5,
            "TEXCOORD_0": 6
          },
          "indices": 7,
          "material": 1
        }
      ]
    },
    {
      "primitives": [
        {
          "attributes": {
            "POSITION": 8,
            "NORMAL": 9,
            "TEXCOORD_0": 10
          },
          "indices": 11,
          "material": 2
        }
      ]
    },
    {
      "primitives": [
        {
          "attributes": {
            "POSITION": 12,
            "NORMAL": 13,
            "TEXCOORD_0": 14
          },
          "indices": 15,
          "material": 2
        }
      ]
    },
    {
      "primitives": [
        {
          "attributes": {
            "POSITION": 16,
            "NORMAL": 17,
            "TEXCOORD_0": 18
          },
          "indices": 19,
          "material": 2
        }
      ]
    },
    {
      "primitives": [
        {
          "attributes": {
            "POSITION": 20,
            "NORMAL": 21,
            "TEXCOORD_0": 22
          },
          "indices": 23,
          "material": 2
        }
      ]
    }
  ],
  "scenes": [
    {
      "nodes": [
        0,
        1,
        2,
        3,
        4,
        5
      ]
    }
  ],
  "scene": 0,
  "bufferViews": [
    {
      "buffer": 0,
      "byteLength": 13068,
      "name": "position - Ground",
      "byteStride": 12
    },
    {
      "buffer": 0,
      "byteLength": 13068,
      "byteOffset": 13068,
      "name": "normal - Ground",
      "byteStride": 12
    },
    {
      "buffer": 0,
      "byteLength": 8712,
      "byteOffset": 26136,
      "name": "uv - Ground",
      "byteStride": 8
    },
    {
      "buffer": 0,
      "byteLength": 24576,
      "byteOffset": 34848,
      "name": "Indices - Ground"
    },
    {
      "buffer": 0,
      "byteLength": 288,
      "byteOffset": 59424,
      "name": "position - SkyBox",
      "byteStride": 12
    },
    {
      "buffer": 0,
      "byteLength": 288,
      "byteOffset": 59712,
      "name": "normal - SkyBox",
      "byteStride": 12
    },
    {
      "buffer": 0,
      "byteLength": 192,
      "byteOffset": 60000,
      "name": "uv - SkyBox",
      "byteStride": 8
    },
    {
      "buffer": 0,
      "byteLength": 144,
      "byteOffset": 60192,
      "name": "Indices - SkyBox"
    },
    {
      "buffer": 0,
      "byteLength": 48,
      "byteOffset": 60336,
      "name": "position - Wall1",
      "byteStride": 12
    },
    {
      "buffer": 0,
      "byteLength": 48,
      "byteOffset": 60384,
      "name": "normal - Wall1",
      "byteStride": 12
    },
    {
      "buffer": 0,
      "byteLength": 32,
      "byteOffset": 60432,
      "name": "uv - Wall1",
      "byteStride": 8
    },
    {
      "buffer": 0,
      "byteLength": 24,
      "byteOffset": 60464,
      "name": "Indices - Wall1"
    },
    {
      "buffer": 0,
      "byteLength": 48,
      "byteOffset": 60488,
      "name": "position - Wall2",
      "byteStride": 12
    },
    {
      "buffer": 0,
      "byteLength": 48,
      "byteOffset": 60536,
      "name": "normal - Wall2",
      "byteStride": 12
    },
    {
      "buffer": 0,
      "byteLength": 32,
      "byteOffset": 60584,
      "name": "uv - Wall2",
      "byteStride": 8
    },
    {
      "buffer": 0,
      "byteLength": 24,
      "byteOffset": 60616,
      "name": "Indices - Wall2"
    },
    {
      "buffer": 0,
      "byteLength": 48,
      "byteOffset": 60640,
      "name": "position - Wall3",
      "byteStride": 12
    },
    {
      "buffer": 0,
      "byteLength": 48,
      "byteOffset": 60688,
      "name": "normal - Wall3",
      "byteStride": 12
    },
    {
      "buffer": 0,
      "byteLength": 32,
      "byteOffset": 60736,
      "name": "uv - Wall3",
      "byteStride": 8
    },
    {
      "buffer": 0,
      "byteLength": 24,
      "byteOffset": 60768,
      "name": "Indices - Wall3"
    },
    {
      "buffer": 0,
      "byteLength": 48,
      "byteOffset": 60792,
      "name": "position - Wall4",
      "byteStride": 12
    },
    {
      "buffer": 0,
      "byteLength": 48,
      "byteOffset": 60840,
      "name": "normal - Wall4",
      "byteStride": 12
    },
    {
      "buffer": 0,
      "byteLength": 32,
      "byteOffset": 60888,
      "name": "uv - Wall4",
      "byteStride": 8
    },
    {
      "buffer": 0,
      "byteLength": 24,
      "byteOffset": 60920,
      "name": "Indices - Wall4"
    }
  ],
  "accessors": [
    {
      "name": "position - Ground",
      "bufferView": 0,
      "componentType": 5126,
      "count": 1089,
      "type": "VEC3",
      "min": [
        -256,
        0,
        -256
      ],
      "max": [
        256,
        0,
        256
      ],
      "byteOffset": 0
    },
    {
      "name": "normal - Ground",
      "bufferView": 1,
      "componentType": 5126,
      "count": 1089,
      "type": "VEC3",
      "byteOffset": 0
    },
    {
      "name": "uv - Ground",
      "bufferView": 2,
      "componentType": 5126,
      "count": 1089,
      "type": "VEC2",
      "byteOffset": 0
    },
    {
      "name": "indices - Ground",
      "bufferView": 3,
      "componentType": 5125,
      "count": 6144,
      "type": "SCALAR",
      "byteOffset": 0
    },
    {
      "name": "position - SkyBox",
      "bufferView": 4,
      "componentType": 5126,
      "count": 24,
      "type": "VEC3",
      "min": [
        -2500,
        -2500,
        -2500
      ],
      "max": [
        2500,
        2500,
        2500
      ],
      "byteOffset": 0
    },
    {
      "name": "normal - SkyBox",
      "bufferView": 5,
      "componentType": 5126,
      "count": 24,
      "type": "VEC3",
      "byteOffset": 0
    },
    {
      "name": "uv - SkyBox",
      "bufferView": 6,
      "componentType": 5126,
      "count": 24,
      "type": "VEC2",
      "byteOffset": 0
    },
    {
      "name": "indices - SkyBox",
      "bufferView": 7,
      "componentType": 5125,
      "count": 36,
      "type": "SCALAR",
      "byteOffset": 0
    },
    {
      "name": "position - Wall1",
      "bufferView": 8,
      "componentType": 5126,
      "count": 4,
      "type": "VEC3",
      "min": [
        -16,
        -16,
        0
      ],
      "max": [
        16,
        16,
        0
      ],
      "byteOffset": 0
    },
    {
      "name": "normal - Wall1",
      "bufferView": 9,
      "componentType": 5126,
      "count": 4,
      "type": "VEC3",
      "byteOffset": 0
    },
    {
      "name": "uv - Wall1",
      "bufferView": 10,
      "componentType": 5126,
      "count": 4,
      "type": "VEC2",
      "byteOffset": 0
    },
    {
      "name": "indices - Wall1",
      "bufferView": 11,
      "componentType": 5125,
      "count": 6,
      "type": "SCALAR",
      "byteOffset": 0
    },
    {
      "name": "position - Wall2",
      "bufferView": 12,
      "componentType": 5126,
      "count": 4,
      "type": "VEC3",
      "min": [
        -16,
        -16,
        0
      ],
      "max": [
        16,
        16,
        0
      ],
      "byteOffset": 0
    },
    {
      "name": "normal - Wall2",
      "bufferView": 13,
      "componentType": 5126,
      "count": 4,
      "type": "VEC3",
      "byteOffset": 0
    },
    {
      "name": "uv - Wall2",
      "bufferView": 14,
      "componentType": 5126,
      "count": 4,
      "type": "VEC2",
      "byteOffset": 0
    },
    {
      "name": "indices - Wall2",
      "bufferView": 15,
      "componentType": 5125,
      "count": 6,
      "type": "SCALAR",
      "byteOffset": 0
    },
    {
      "name": "position - Wall3",
      "bufferView": 16,
      "componentType": 5126,
      "count": 4,
      "type": "VEC3",
      "min": [
        -16,
        -16,
        0
      ],
      "max": [
        16,
        16,
        0
      ],
      "byteOffset": 0
    },
    {
      "name": "normal - Wall3",
      "bufferView": 17,
      "componentType": 5126,
      "count": 4,
      "type": "VEC3",
      "byteOffset": 0
    },
    {
      "name": "uv - Wall3",
      "bufferView": 18,
      "componentType": 5126,
      "count": 4,
      "type": "VEC2",
      "byteOffset": 0
    },
    {
      "name": "indices - Wall3",
      "bufferView": 19,
      "componentType": 5125,
      "count": 6,
      "type": "SCALAR",
      "byteOffset": 0
    },
    {
      "name": "position - Wall4",
      "bufferView": 20,
      "componentType": 5126,
      "count": 4,
      "type": "VEC3",
      "min": [
        -16,
        -16,
        0
      ],
      "max": [
        16,
        16,
        0
      ],
      "byteOffset": 0
    },
    {
      "name": "normal - Wall4",
      "bufferView": 21,
      "componentType": 5126,
      "count": 4,
      "type": "VEC3",
      "byteOffset": 0
    },
    {
      "name": "uv - Wall4",
      "bufferView": 22,
      "componentType": 5126,
      "count": 4,
      "type": "VEC2",
      "byteOffset": 0
    },
    {
      "name": "indices - Wall4",
      "bufferView": 23,
      "componentType": 5125,
      "count": 6,
      "type": "SCALAR",
      "byteOffset": 0
    }
  ],
  "materials": [
    {
      "name": "Grass",
      "pbrMetallicRoughness": {
        "baseColorFactor": [
          0.5,
          0.5,
          0.5,
          1
        ],
        "metallicFactor": 0,
        "roughnessFactor": 0.3288090062081349,
        "baseColorTexture": {
          "index": 1,
          "texCoord": 0
        }
      }
    },
    {
      "name": "Sky",
      "pbrMetallicRoughness": {
        "baseColorFactor": [
          0.5,
          0.5,
          0.5,
          1
        ],
        "metallicFactor": 0,
        "roughnessFactor": 0.3288090062081349,
        "baseColorTexture": {
          "index": 0,
          "texCoord": 0
        }
      }
    },
    {
      "name": "Brick",
      "pbrMetallicRoughness": {
        "baseColorFactor": [
          0.5,
          0.5,
          0.5,
          1
        ],
        "metallicFactor": 0,
        "roughnessFactor": 0.3288090062081349,
        "baseColorTexture": {
          "index": 2,
          "texCoord": 0
        }
      }
    }
  ],
  "textures": [
    {
      "source": 0,
      "name": "sky.jpg",
      "sampler": 0
    },
    {
      "source": 1,
      "name": "grass.jpg",
      "sampler": 0
    },
    {
      "source": 2,
      "name": "brick.jpg",
      "sampler": 0
    }
  ],
  "samplers": [
    {
      "magFilter": 9729,
      "minFilter": 9987
    }
  ],
  "images": [
    {
      "name": "sky.jpg",
      "uri": "sky.jpg.png"
    },
    {
      "name": "grass.jpg",
      "uri": "grass.jpg.png"
    },
    {
      "name": "brick.jpg",
      "uri": "brick.jpg.png"
    }
  ]
}