{
  "accessors": [
    {
      "bufferView": 1,
      "componentType": 5126,
      "count": 4241,
      "max": [
        102.5,
        54.5,
        28.5
      ],
      "min": [
        21.5,
        48.5,
        6.5
      ],
      "type": "VEC3"
    },
    {
      "bufferView": 1,
      "byteOffset": 50892,
      "componentType": 5126,
      "count": 4241,
      "max": [
        1,
        1,
        1
      ],
      "min": [
        -1,
        -1,
        -1
      ],
      "type": "VEC3"
    },
    {
      "bufferView": 2,
      "componentType": 5126,
      "count": 4241,
      "max": [
        0.43529412150382996,
        0.29411765933036804,
        0.29411765933036804,
        1
      ],
      "min": [
        0.15686275064945221,
        0.12156862765550613,
        0,
        1
      ],
      "type": "VEC4"
    },
    {
      "bufferView": 0,
      "componentType": 5125,
      "count": 13176,
      "max": [
        4240
      ],
      "min": [
        0
      ],
      "type": "SCALAR"
    },
    {
      "bufferView": 1,
      "byteOffset": 101784,
      "componentType": 5126,
      "count": 724,
      "max": [
        82.5,
        53.5,
        27.5
      ],
      "min": [
        43.5,
        49.5,
        22.5
      ],
      "type": "VEC3"
    },
    {
      "bufferView": 1,
      "byteOffset": 110472,
      "componentType": 5126,
      "count": 724,
      "max": [
        1,
        1,
        1
      ],
      "min": [
        -1,
        -1,
        0
      ],
      "type": "VEC3"
    },
    {
      "bufferView": 2,
      "byteOffset": 67856,
      "componentType": 5126,
      "count": 724,
      "max": [
        0.40392157435417175,
        0.40392157435417175,
        0.40392157435417175,
        1
      ],
      "min": [
        0.35294118523597717,
        0.074509806931018829,
        0,
        1
      ],
      "type": "VEC4"
    },
    {
      "bufferView": 0,
      "byteOffset": 52704,
      "componentType": 5125,
      "count": 2076,
      "max": [
        723
      ],
      "min": [
        0
      ],
      "type": "SCALAR"
    }
  ],
  "asset": {
    "extras": {
      "author": "orbankristof2006 (https://sketchfab.com/orbankristof2006)",
      "license": "CC-BY-4.0 (http://creativecommons.org/licenses/by/4.0/)",
      "source": "https://sketchfab.com/3d-models/ak-47-8d645fc3f556420580dee8b7e7a50396",
      "title": "AK 47"
    },
    "generator": "Sketchfab-4.69.0",
    "version": "2.0"
  },
  "bufferViews": [
    {
      "buffer": 0,
      "byteLength": 61008,
      "byteOffset": 0,
      "name": "floatBufferViews",
      "target": 34963
    },
    {
      "buffer": 0,
      "byteLength": 119160,
      "byteOffset": 61008,
      "byteStride": 12,
      "name": "floatBufferViews",
      "target": 34962
    },
    {
      "buffer": 0,
      "byteLength": 79440,
      "byteOffset": 180168,
      "byteStride": 16,
      "name": "floatBufferViews",
      "target": 34962
    }
  ],
  "buffers": [
    {
      "byteLength": 259608,
      "uri": "scene.bin"
    }
  ],
  "materials": [
    {
      "doubleSided": true,
      "name": "Scene_-_Root",
      "pbrMetallicRoughness": {
        "baseColorFactor": [
          1,
          1,
          1,
          1
        ],
        "metallicFactor": 0,
        "roughnessFactor": 0.59999999999999998
      }
    }
  ],
  "meshes": [
    {
      "primitives": [
        {
          "attributes": {
            "COLOR_0": 2,
            "NORMAL": 1,
            "POSITION": 0
          },
          "indices": 3,
          "material": 0,
          "mode": 4
        }
      ]
    },
    {
      "primitives": [
        {
          "attributes": {
            "COLOR_0": 6,
            "NORMAL": 5,
            "POSITION": 4
          },
          "indices": 7,
          "material": 0,
          "mode": 4
        }
      ]
    }
  ],
  "nodes": [
    {
      "children": [
        1
      ],
      "name": "RootNode (gltf orientation matrix)",
      "rotation": [
        -0.70710678118654746,
        -0,
        -0,
        0.70710678118654757
      ]
    },
    {
      "children": [
        2
      ],
      "name": "RootNode (model correction matrix)"
    },
    {
      "children": [
        3
      ],
      "name": "VoxRoot"
    },
    {
      "children": [
        4,
        5
      ],
      "name": ""
    },
    {
      "mesh": 0,
      "name": ""
    },
    {
      "mesh": 1,
      "name": ""
    }
  ],
  "scene": 0,
  "scenes": [
    {
      "name": "OSG_Scene",
      "nodes": [
        0
      ]
    }
  ]
}

