{
 "accessors": [
  {
   "componentType": 5126,
   "type": "VEC3",
   "count": 24,
   "max": [
    0.15000000596046448,
    0.375,
    0.15000000596046448
   ],
   "min": [
    -0.15000000596046448,
    -0.375,
    -0.15000000596046448
   ],
   "bufferView": 0
  },
  {
   "componentType": 5126,
   "type": "VEC3",
   "count": 24,
   "bufferView": 1
  },
  {
   "componentType": 5126,
   "type": "VEC2",
   "count": 24,
   "bufferView": 2
  },
  {
   "componentType": 5121,
   "type": "SCALAR",
   "count": 36,
   "bufferView": 3
  },
  {
   "componentType": 5126,
   "type": "VEC3",
   "count": 24,
   "max": [
    0.15000000596046448,
    0.375,
    0.15000000596046448
   ],
   "min": [
    -0.15000000596046448,
    -0.375,
    -0.15000000596046448
   ],
   "bufferView": 4
  },
  {
   "componentType": 5126,
   "type": "VEC3",
   "count": 24,
   "bufferView": 5
  },
  {
   "componentType": 5126,
   "type": "VEC2",
   "count": 24,
   "bufferView": 6
  },
  {
   "componentType": 5121,
   "type": "SCALAR",
   "count": 36,
   "bufferView": 7
  },
  {
   "componentType": 5126,
   "type": "VEC3",
   "count": 24,
   "max": [
    0.30000001192092896,
    0.375,
    0.15000000596046448
   ],
   "min": [
    -0.30000001192092896,
    -0.375,
    -0.15000000596046448
   ],
   "bufferView": 8
  },
  {
   "componentType": 5126,
   "type": "VEC3",
   "count": 24,
   "bufferView": 9
  },
  {
   "componentType": 5126,
   "type": "VEC2",
   "count": 24,
   "bufferView": 10
  },
  {
   "componentType": 5121,
   "type": "SCALAR",
   "count": 36,
   "bufferView": 11
  },
  {
   "componentType": 5126,
   "type": "VEC3",
   "count": 24,
   "max": [
    0.15000000596046448,
    0.375,
    0.15000000596046448
   ],
   "min": [
    -0.15000000596046448,
    -0.375,
    -0.15000000596046448
   ],
   "bufferView": 12
  },
  {
   "componentType": 5126,
   "type": "VEC3",
   "count": 24,
   "bufferView": 13
  },
  {
   "componentType": 5126,
   "type": "VEC2",
   "count": 24,
   "bufferView": 14
  },
  {
   "componentType": 5121,
   "type": "SCALAR",
   "count": 36,
   "bufferView": 15
  },
  {
   "componentType": 5126,
   "type": "VEC3",
   "count": 24,
   "max": [
    0.15000000596046448,
    0.375,
    0.15000000596046448
   ],
   "min": [
    -0.15000000596046448,
    -0.375,
    -0.15000000596046448
   ],
   "bufferView": 16
  },
  {
   "componentType": 5126,
   "type": "VEC3",
   "count": 24,
   "bufferView": 17
  },
  {
   "componentType": 5126,
   "type": "VEC2",
   "count": 24,
   "bufferView": 18
  },
  {
   "componentType": 5121,
   "type": "SCALAR",
   "count": 36,
   "bufferView": 19
  },
  {
   "componentType": 5126,
   "type": "VEC3",
   "count": 24,
   "max": [
    0.25,
    0.25,
    0.25
   ],
   "min": [
    -0.25,
    -0.25,
    -0.25
   ],
   "bufferView": 20
  },
  {
   "componentType": 5126,
   "type": "VEC3",
   "count": 24,
   "bufferView": 21
  },
  {
   "componentType": 5126,
   "type": "VEC2",
   "count": 24,
   "bufferView": 22
  },
  {
   "componentType": 5121,
   "type": "SCALAR",
   "count": 36,
   "bufferView": 23
  }
 ],
 "asset": {
  "version": "2.0",
  "generator": "clara.io"
 },
 "bufferViews": [
  {
   "buffer": 0,
   "byteOffset": 0,
   "byteLength": 288,
   "target": 34962,
   "byteStride": 12
  },
  {
   "buffer": 0,
   "byteOffset": 288,
   "byteLength": 288,
   "target": 34962,
   "byteStride": 12
  },
  {
   "buffer": 0,
   "byteOffset": 576,
   "byteLength": 192,
   "target": 34962,
   "byteStride": 8
  },
  {
   "buffer": 0,
   "byteOffset": 768,
   "byteLength": 36,
   "target": 34963
  },
  {
   "buffer": 0,
   "byteOffset": 804,
   "byteLength": 288,
   "target": 34962,
   "byteStride": 12
  },
  {
   "buffer": 0,
   "byteOffset": 1092,
   "byteLength": 288,
   "target": 34962,
   "byteStride": 12
  },
  {
   "buffer": 0,
   "byteOffset": 1380,
   "byteLength": 192,
   "target": 34962,
   "byteStride": 8
  },
  {
   "buffer": 0,
   "byteOffset": 1572,
   "byteLength": 36,
   "target": 34963
  },
  {
   "buffer": 0,
   "byteOffset": 1608,
   "byteLength": 288,
   "target": 34962,
   "byteStride": 12
  },
  {
   "buffer": 0,
   "byteOffset": 1896,
   "byteLength": 288,
   "target": 34962,
   "byteStride": 12
  },
  {
   "buffer": 0,
   "byteOffset": 2184,
   "byteLength": 192,
   "target": 34962,
   "byteStride": 8
  },
  {
   "buffer": 0,
   "byteOffset": 2376,
   "byteLength": 36,
   "target": 34963
  },
  {
   "buffer": 0,
   "byteOffset": 2412,
   "byteLength": 288,
   "target": 34962,
   "byteStride": 12
  },
  {
   "buffer": 0,
   "byteOffset": 2700,
   "byteLength": 288,
   "target": 34962,
   "byteStride": 12
  },
  {
   "buffer": 0,
   "byteOffset": 2988,
   "byteLength": 192,
   "target": 34962,
   "byteStride": 8
  },
  {
   "buffer": 0,
   "byteOffset": 3180,
   "byteLength": 36,
   "target": 34963
  },
  {
   "buffer": 0,
   "byteOffset": 3216,
   "byteLength": 288,
   "target": 34962,
   "byteStride": 12
  },
  {
   "buffer": 0,
   "byteOffset": 3504,
   "byteLength": 288,
   "target": 34962,
   "byteStride": 12
  },
  {
   "buffer": 0,
   "byteOffset": 3792,
   "byteLength": 192,
   "target": 34962,
   "byteStride": 8
  },
  {
   "buffer": 0,
   "byteOffset": 3984,
   "byteLength": 36,
   "target": 34963
  },
  {
   "buffer": 0,
   "byteOffset": 4020,
   "byteLength": 288,
   "target": 34962,
   "byteStride": 12
  },
  {
   "buffer": 0,
   "byteOffset": 4308,
   "byteLength": 288,
   "target": 34962,
   "byteStride": 12
  },
  {
   "buffer": 0,
   "byteOffset": 4596,
   "byteLength": 192,
   "target": 34962,
   "byteStride": 8
  },
  {
   "buffer": 0,
   "byteOffset": 4788,
   "byteLength": 36,
   "target": 34963
  }
 ],
 "buffers": [
  {
   "byteLength": 4824,
   "uri": "data:application/octet-stream;base64,"
  }
 ],
 "materials": [
  {
   "name": "Blue",
   "pbrMetallicRoughness": {
    "baseColorFactor": [
     0.6901960784313725,
     0.6901960784313725,
     0.6901960784313725,
     1
    ],
    "roughnessFactor": 0.1961,
    "metallicFactor": 0
   },
   "emissiveFactor": [
    0,
    0.33725490196078434,
    1
   ]
  },
  {
   "name": "Green",
   "pbrMetallicRoughness": {
    "baseColorFactor": [
     0.6901960784313725,
     0.6901960784313725,
     0.6901960784313725,
     1
    ],
    "roughnessFactor": 0.1961,
    "metallicFactor": 0
   },
   "emissiveFactor": [
    0,
    1,
    0.1568627450980392
   ]
  },
  {
   "name": "Orange",
   "pbrMetallicRoughness": {
    "baseColorFactor": [
     0.6901960784313725,
     0.6901960784313725,
     0.6901960784313725,
     1
    ],
    "roughnessFactor": 0.1961,
    "metallicFactor": 0
   },
   "emissiveFactor": [
    1,
    0.47843137254901963,
    0
   ]
  },
  {
   "name": "Cyan",
   "pbrMetallicRoughness": {
    "baseColorFactor": [
     0.6901960784313725,
     0.6901960784313725,
     0.6901960784313725,
     1
    ],
    "roughnessFactor": 0.1961,
    "metallicFactor": 0
   },
   "emissiveFactor": [
    0,
    0.996078431372549,
    1
   ]
  },
  {
   "name": "Purple",
   "pbrMetallicRoughness": {
    "baseColorFactor": [
     0.6901960784313725,
     0.6901960784313725,
     0.6901960784313725,
     1
    ],
    "roughnessFactor": 0.1961,
    "metallicFactor": 0
   },
   "emissiveFactor": [
    0.6196078431372549,
    0,
    1
   ]
  },
  {
   "name": "Red",
   "pbrMetallicRoughness": {
    "baseColorFactor": [
     0.6901960784313725,
     0.6901960784313725,
     0.6901960784313725,
     1
    ],
    "roughnessFactor": 0.1961,
    "metallicFactor": 0
   },
   "emissiveFactor": [
    1,
    0,
    0
   ]
  }
 ],
 "meshes": [
  {
   "primitives": [
    {
     "indices": 3,
     "material": 0,
     "mode": 4,
     "attributes": {
      "POSITION": 0,
      "NORMAL": 1,
      "TEXCOORD_0": 2
     }
    }
   ]
  },
  {
   "primitives": [
    {
     "indices": 7,
     "material": 1,
     "mode": 4,
     "attributes": {
      "POSITION": 4,
      "NORMAL": 5,
      "TEXCOORD_0": 6
     }
    }
   ]
  },
  {
   "primitives": [
    {
     "indices": 11,
     "material": 2,
     "mode": 4,
     "attributes": {
      "POSITION": 8,
      "NORMAL": 9,
      "TEXCOORD_0": 10
     }
    }
   ]
  },
  {
   "primitives": [
    {
     "indices": 15,
     "material": 3,
     "mode": 4,
     "attributes": {
      "POSITION": 12,
      "NORMAL": 13,
      "TEXCOORD_0": 14
     }
    }
   ]
  },
  {
   "primitives": [
    {
     "indices": 19,
     "material": 4,
     "mode": 4,
     "attributes": {
      "POSITION": 16,
      "NORMAL": 17,
      "TEXCOORD_0": 18
     }
    }
   ]
  },
  {
   "primitives": [
    {
     "indices": 23,
     "material": 5,
     "mode": 4,
     "attributes": {
      "POSITION": 20,
      "NORMAL": 21,
      "TEXCOORD_0": 22
     }
    }
   ]
  }
 ],
 "nodes": [
  {
   "name": "PlayerModel",
   "scale": [
    1.2000000476837158,
    1.2000001668930054,
    1.2000000476837158
   ],
   "children": [
    1,
    5,
    8
   ]
  },
  {
   "name": "Top",
   "translation": [
    0,
    1.3200000524520874,
    0
   ],
   "children": [
    2,
    3,
    4
   ]
  },
  {
   "name": "Arm-Left",
   "translation": [
    0.45000001788139343,
    0.08366665244102478,
    0.25
   ],
   "rotation": [
    -0.7071067811865475,
    0,
    0,
    0.7071067811865476
   ],
   "mesh": 0
  },
  {
   "name": "Arm-Right",
   "translation": [
    -0.45000001788139343,
    0.08366665244102478,
    0.25
   ],
   "rotation": [
    -0.7071067811865475,
    0,
    0,
    0.7071067811865476
   ],
   "mesh": 1
  },
  {
   "name": "Chest",
   "translation": [
    0,
    -0.16733327507972717,
    0
   ],
   "mesh": 2
  },
  {
   "name": "Bottom",
   "translation": [
    0,
    0.6499999761581421,
    0
   ],
   "children": [
    6,
    7
   ]
  },
  {
   "name": "Leg-Left",
   "translation": [
    0.15000000596046448,
    -0.2500000298023224,
    0
   ],
   "mesh": 3
  },
  {
   "name": "Leg-Right",
   "translation": [
    -0.15000000596046448,
    -0.2500000298023224,
    0
   ],
   "mesh": 4
  },
  {
   "name": "Head",
   "translation": [
    0,
    1.7699999809265137,
    0
   ],
   "mesh": 5
  }
 ],
 "scene": 0,
 "scenes": [
  {
   "nodes": [
    0
   ]
  }
 ]
}