{
 "accessors": [
  {
   "componentType": 5126,
   "type": "VEC3",
   "count": 4,
   "max": [
    2,
    0,
    2
   ],
   "min": [
    -2,
    0,
    -2
   ],
   "bufferView": 2
  },
  {
   "componentType": 5126,
   "type": "VEC3",
   "count": 4,
   "bufferView": 3
  },
  {
   "componentType": 5126,
   "type": "VEC2",
   "count": 4,
   "bufferView": 4
  },
  {
   "componentType": 5121,
   "type": "SCALAR",
   "count": 6,
   "bufferView": 5
  },
  {
   "componentType": 5126,
   "type": "VEC3",
   "count": 24,
   "max": [
    2,
    50,
    2
   ],
   "min": [
    -2,
    -50,
    -2
   ],
   "bufferView": 6
  },
  {
   "componentType": 5126,
   "type": "VEC3",
   "count": 24,
   "bufferView": 7
  },
  {
   "componentType": 5126,
   "type": "VEC2",
   "count": 24,
   "bufferView": 8
  },
  {
   "componentType": 5121,
   "type": "SCALAR",
   "count": 36,
   "bufferView": 9
  },
  {
   "componentType": 5126,
   "type": "VEC3",
   "count": 24,
   "max": [
    2,
    50,
    2
   ],
   "min": [
    -2,
    -50,
    -2
   ],
   "bufferView": 10
  },
  {
   "componentType": 5126,
   "type": "VEC3",
   "count": 24,
   "bufferView": 11
  },
  {
   "componentType": 5126,
   "type": "VEC2",
   "count": 24,
   "bufferView": 12
  },
  {
   "componentType": 5121,
   "type": "SCALAR",
   "count": 36,
   "bufferView": 13
  },
  {
   "componentType": 5126,
   "type": "VEC3",
   "count": 24,
   "max": [
    2,
    50,
    2
   ],
   "min": [
    -2,
    -50,
    -2
   ],
   "bufferView": 14
  },
  {
   "componentType": 5126,
   "type": "VEC3",
   "count": 24,
   "bufferView": 15
  },
  {
   "componentType": 5126,
   "type": "VEC2",
   "count": 24,
   "bufferView": 16
  },
  {
   "componentType": 5121,
   "type": "SCALAR",
   "count": 36,
   "bufferView": 17
  },
  {
   "componentType": 5126,
   "type": "VEC3",
   "count": 24,
   "max": [
    2,
    50,
    2
   ],
   "min": [
    -2,
    -50,
    -2
   ],
   "bufferView": 18
  },
  {
   "componentType": 5126,
   "type": "VEC3",
   "count": 24,
   "bufferView": 19
  },
  {
   "componentType": 5126,
   "type": "VEC2",
   "count": 24,
   "bufferView": 20
  },
  {
   "componentType": 5121,
   "type": "SCALAR",
   "count": 36,
   "bufferView": 21
  },
  {
   "componentType": 5126,
   "type": "VEC3",
   "count": 24,
   "max": [
    2,
    2,
    2
   ],
   "min": [
    -2,
    -2,
    -2
   ],
   "bufferView": 22
  },
  {
   "componentType": 5126,
   "type": "VEC3",
   "count": 24,
   "bufferView": 23
  },
  {
   "componentType": 5126,
   "type": "VEC2",
   "count": 24,
   "bufferView": 24
  },
  {
   "componentType": 5121,
   "type": "SCALAR",
   "count": 36,
   "bufferView": 25
  },
  {
   "componentType": 5126,
   "type": "VEC3",
   "count": 24,
   "max": [
    2,
    2,
    2
   ],
   "min": [
    -2,
    -2,
    -2
   ],
   "bufferView": 26
  },
  {
   "componentType": 5126,
   "type": "VEC3",
   "count": 24,
   "bufferView": 27
  },
  {
   "componentType": 5126,
   "type": "VEC2",
   "count": 24,
   "bufferView": 28
  },
  {
   "componentType": 5121,
   "type": "SCALAR",
   "count": 36,
   "bufferView": 29
  },
  {
   "componentType": 5126,
   "type": "VEC3",
   "count": 24,
   "max": [
    2,
    0.5,
    2
   ],
   "min": [
    -2,
    -0.5,
    -2
   ],
   "bufferView": 30
  },
  {
   "componentType": 5126,
   "type": "VEC3",
   "count": 24,
   "bufferView": 31
  },
  {
   "componentType": 5126,
   "type": "VEC2",
   "count": 24,
   "bufferView": 32
  },
  {
   "componentType": 5121,
   "type": "SCALAR",
   "count": 36,
   "bufferView": 33
  },
  {
   "componentType": 5126,
   "type": "VEC3",
   "count": 24,
   "max": [
    2,
    0.5,
    2
   ],
   "min": [
    -2,
    -0.5,
    -2
   ],
   "bufferView": 34
  },
  {
   "componentType": 5126,
   "type": "VEC3",
   "count": 24,
   "bufferView": 35
  },
  {
   "componentType": 5126,
   "type": "VEC2",
   "count": 24,
   "bufferView": 36
  },
  {
   "componentType": 5121,
   "type": "SCALAR",
   "count": 36,
   "bufferView": 37
  }
 ],
 "asset": {
  "version": "2.0",
  "generator": "clara.io"
 },
 "bufferViews": [
  {
   "buffer": 0,
   "byteOffset": 0,
   "byteLength": 17264
  },
  {
   "buffer": 0,
   "byteOffset": 17264,
   "byteLength": 17299
  },
  {
   "buffer": 0,
   "byteOffset": 34564,
   "byteLength": 48,
   "target": 34962,
   "byteStride": 12
  },
  {
   "buffer": 0,
   "byteOffset": 34612,
   "byteLength": 48,
   "target": 34962,
   "byteStride": 12
  },
  {
   "buffer": 0,
   "byteOffset": 34660,
   "byteLength": 32,
   "target": 34962,
   "byteStride": 8
  },
  {
   "buffer": 0,
   "byteOffset": 34692,
   "byteLength": 6,
   "target": 34963
  },
  {
   "buffer": 0,
   "byteOffset": 34700,
   "byteLength": 288,
   "target": 34962,
   "byteStride": 12
  },
  {
   "buffer": 0,
   "byteOffset": 34988,
   "byteLength": 288,
   "target": 34962,
   "byteStride": 12
  },
  {
   "buffer": 0,
   "byteOffset": 35276,
   "byteLength": 192,
   "target": 34962,
   "byteStride": 8
  },
  {
   "buffer": 0,
   "byteOffset": 35468,
   "byteLength": 36,
   "target": 34963
  },
  {
   "buffer": 0,
   "byteOffset": 35504,
   "byteLength": 288,
   "target": 34962,
   "byteStride": 12
  },
  {
   "buffer": 0,
   "byteOffset": 35792,
   "byteLength": 288,
   "target": 34962,
   "byteStride": 12
  },
  {
   "buffer": 0,
   "byteOffset": 36080,
   "byteLength": 192,
   "target": 34962,
   "byteStride": 8
  },
  {
   "buffer": 0,
   "byteOffset": 36272,
   "byteLength": 36,
   "target": 34963
  },
  {
   "buffer": 0,
   "byteOffset": 36308,
   "byteLength": 288,
   "target": 34962,
   "byteStride": 12
  },
  {
   "buffer": 0,
   "byteOffset": 36596,
   "byteLength": 288,
   "target": 34962,
   "byteStride": 12
  },
  {
   "buffer": 0,
   "byteOffset": 36884,
   "byteLength": 192,
   "target": 34962,
   "byteStride": 8
  },
  {
   "buffer": 0,
   "byteOffset": 37076,
   "byteLength": 36,
   "target": 34963
  },
  {
   "buffer": 0,
   "byteOffset": 37112,
   "byteLength": 288,
   "target": 34962,
   "byteStride": 12
  },
  {
   "buffer": 0,
   "byteOffset": 37400,
   "byteLength": 288,
   "target": 34962,
   "byteStride": 12
  },
  {
   "buffer": 0,
   "byteOffset": 37688,
   "byteLength": 192,
   "target": 34962,
   "byteStride": 8
  },
  {
   "buffer": 0,
   "byteOffset": 37880,
   "byteLength": 36,
   "target": 34963
  },
  {
   "buffer": 0,
   "byteOffset": 37916,
   "byteLength": 288,
   "target": 34962,
   "byteStride": 12
  },
  {
   "buffer": 0,
   "byteOffset": 38204,
   "byteLength": 288,
   "target": 34962,
   "byteStride": 12
  },
  {
   "buffer": 0,
   "byteOffset": 38492,
   "byteLength": 192,
   "target": 34962,
   "byteStride": 8
  },
  {
   "buffer": 0,
   "byteOffset": 38684,
   "byteLength": 36,
   "target": 34963
  },
  {
   "buffer": 0,
   "byteOffset": 38720,
   "byteLength": 288,
   "target": 34962,
   "byteStride": 12
  },
  {
   "buffer": 0,
   "byteOffset": 39008,
   "byteLength": 288,
   "target": 34962,
   "byteStride": 12
  },
  {
   "buffer": 0,
   "byteOffset": 39296,
   "byteLength": 192,
   "target": 34962,
   "byteStride": 8
  },
  {
   "buffer": 0,
   "byteOffset": 39488,
   "byteLength": 36,
   "target": 34963
  },
  {
   "buffer": 0,
   "byteOffset": 39524,
   "byteLength": 288,
   "target": 34962,
   "byteStride": 12
  },
  {
   "buffer": 0,
   "byteOffset": 39812,
   "byteLength": 288,
   "target": 34962,
   "byteStride": 12
  },
  {
   "buffer": 0,
   "byteOffset": 40100,
   "byteLength": 192,
   "target": 34962,
   "byteStride": 8
  },
  {
   "buffer": 0,
   "byteOffset": 40292,
   "byteLength": 36,
   "target": 34963
  },
  {
   "buffer": 0,
   "byteOffset": 40328,
   "byteLength": 288,
   "target": 34962,
   "byteStride": 12
  },
  {
   "buffer": 0,
   "byteOffset": 40616,
   "byteLength": 288,
   "target": 34962,
   "byteStride": 12
  },
  {
   "buffer": 0,
   "byteOffset": 40904,
   "byteLength": 192,
   "target": 34962,
   "byteStride": 8
  },
  {
   "buffer": 0,
   "byteOffset": 41096,
   "byteLength": 36,
   "target": 34963
  }
 ],
 "buffers": [
  {
   "byteLength": 41132,
   "uri": "data:application/octet-stream;base64,"
  }
 ],
 "images": [
  {
   "name": "brick-1.jpg",
   "bufferView": 0,
   "mimeType": "image/jpeg"
  },
  {
   "name": "grass-1.jpg",
   "bufferView": 1,
   "mimeType": "image/jpeg"
  }
 ],
 "materials": [
  {
   "name": "Grass",
   "pbrMetallicRoughness": {
    "baseColorFactor": [
     0.6901960784313725,
     0.6901960784313725,
     0.6901960784313725,
     1
    ],
    "baseColorTexture": {
     "index": 1,
     "texCoord": 0
    },
    "roughnessFactor": 0.1961,
    "metallicFactor": 0
   },
   "doubleSided": true
  },
  {
   "name": "Invisible",
   "pbrMetallicRoughness": {
    "baseColorFactor": [
     0.6901960784313725,
     0.6901960784313725,
     0.6901960784313725,
     0
    ],
    "roughnessFactor": 0.1961,
    "metallicFactor": 0
   },
   "alphaMode": "BLEND"
  },
  {
   "name": "Brick texture",
   "pbrMetallicRoughness": {
    "baseColorFactor": [
     0.6901960784313725,
     0.6901960784313725,
     0.6901960784313725,
     1
    ],
    "baseColorTexture": {
     "index": 0,
     "texCoord": 0
    },
    "roughnessFactor": 0.1961,
    "metallicFactor": 0
   }
  }
 ],
 "meshes": [
  {
   "primitives": [
    {
     "indices": 3,
     "material": 0,
     "mode": 4,
     "attributes": {
      "POSITION": 0,
      "NORMAL": 1,
      "TEXCOORD_0": 2
     }
    }
   ]
  },
  {
   "primitives": [
    {
     "indices": 7,
     "material": 1,
     "mode": 4,
     "attributes": {
      "POSITION": 4,
      "NORMAL": 5,
      "TEXCOORD_0": 6
     }
    }
   ]
  },
  {
   "primitives": [
    {
     "indices": 11,
     "material": 1,
     "mode": 4,
     "attributes": {
      "POSITION": 8,
      "NORMAL": 9,
      "TEXCOORD_0": 10
     }
    }
   ]
  },
  {
   "primitives": [
    {
     "indices": 15,
     "material": 1,
     "mode": 4,
     "attributes": {
      "POSITION": 12,
      "NORMAL": 13,
      "TEXCOORD_0": 14
     }
    }
   ]
  },
  {
   "primitives": [
    {
     "indices": 19,
     "material": 1,
     "mode": 4,
     "attributes": {
      "POSITION": 16,
      "NORMAL": 17,
      "TEXCOORD_0": 18
     }
    }
   ]
  },
  {
   "primitives": [
    {
     "indices": 23,
     "material": 2,
     "mode": 4,
     "attributes": {
      "POSITION": 20,
      "NORMAL": 21,
      "TEXCOORD_0": 22
     }
    }
   ]
  },
  {
   "primitives": [
    {
     "indices": 27,
     "material": 2,
     "mode": 4,
     "attributes": {
      "POSITION": 24,
      "NORMAL": 25,
      "TEXCOORD_0": 26
     }
    }
   ]
  },
  {
   "primitives": [
    {
     "indices": 31,
     "material": 2,
     "mode": 4,
     "attributes": {
      "POSITION": 28,
      "NORMAL": 29,
      "TEXCOORD_0": 30
     }
    }
   ]
  },
  {
   "primitives": [
    {
     "indices": 35,
     "material": 2,
     "mode": 4,
     "attributes": {
      "POSITION": 32,
      "NORMAL": 33,
      "TEXCOORD_0": 34
     }
    }
   ]
  }
 ],
 "nodes": [
  {
   "name": "Ground",
   "translation": [
    0.9789000153541565,
    0,
    0
   ],
   "scale": [
    60,
    1,
    50
   ],
   "mesh": 0
  },
  {
   "name": "Border1",
   "translation": [
    0,
    50,
    102
   ],
   "scale": [
    60,
    1,
    1
   ],
   "mesh": 1
  },
  {
   "name": "Border2",
   "translation": [
    0,
    50,
    -102
   ],
   "scale": [
    60,
    1,
    1
   ],
   "mesh": 2
  },
  {
   "name": "Border3",
   "translation": [
    120,
    50,
    0
   ],
   "rotation": [
    0,
    0.7071067811865475,
    0,
    0.7071067811865476
   ],
   "scale": [
    50,
    1,
    1
   ],
   "mesh": 3
  },
  {
   "name": "Border4",
   "translation": [
    -120,
    50,
    0
   ],
   "rotation": [
    0,
    0.7071067811865475,
    0,
    0.7071067811865476
   ],
   "scale": [
    50,
    1,
    1
   ],
   "mesh": 4
  },
  {
   "name": "Wall2",
   "translation": [
    119,
    12,
    0
   ],
   "scale": [
    1,
    6,
    50
   ],
   "mesh": 5
  },
  {
   "name": "Wall1",
   "translation": [
    -119,
    12,
    0
   ],
   "scale": [
    1,
    6,
    50
   ],
   "mesh": 6
  },
  {
   "name": "center",
   "scale": [
    10,
    1,
    10
   ],
   "mesh": 7
  },
  {
   "name": "center1",
   "scale": [
    7,
    3,
    7
   ],
   "mesh": 8
  }
 ],
 "samplers": [
  {
   "magFilter": 9729,
   "minFilter": 9987,
   "wrapS": 10497,
   "wrapT": 10497
  }
 ],
 "scene": 0,
 "scenes": [
  {
   "nodes": [
    0,
    1,
    2,
    3,
    4,
    5,
    6,
    7,
    8
   ]
  }
 ],
 "textures": [
  {
   "sampler": 0,
   "source": 0
  },
  {
   "sampler": 0,
   "source": 1
  }
 ]
}